<svg width="485" height="369" viewBox="0 0 485 369" fill="none" xmlns="http://www.w3.org/2000/svg">
<rect width="485" height="369" fill="#1E1E1E"/>
<path d="M485 148.068V131.075C485 127.835 483.704 124.727 481.396 122.436C479.089 120.144 475.96 118.857 472.697 118.857H419.822C418.206 118.857 416.606 118.541 415.113 117.927C413.621 117.313 412.264 116.413 411.122 115.279C409.979 114.144 409.073 112.797 408.455 111.315C407.837 109.833 407.518 108.244 407.518 106.639V89.6464C407.518 86.4061 408.815 83.2984 411.122 81.0071C413.429 78.7158 416.559 77.4286 419.822 77.4286H440.09C443.353 77.4286 446.483 76.1413 448.79 73.85C451.097 71.5587 452.394 68.4511 452.394 65.2107V48.2179C452.394 44.9775 451.097 41.8698 448.79 39.5785C446.483 37.2872 443.353 36 440.09 36H77.3299C74.0669 36 70.9375 37.2872 68.6302 39.5785C66.3229 41.8698 65.0267 44.9775 65.0267 48.2179V65.2107C65.0267 68.4511 66.3229 71.5587 68.6302 73.85C70.9375 76.1413 74.0669 77.4286 77.3299 77.4286C80.5929 77.4286 83.7223 78.7158 86.0296 81.0071C88.3369 83.2984 89.6332 86.4061 89.6332 89.6464V106.639C89.6332 109.88 88.3369 112.987 86.0296 115.279C83.7223 117.57 80.5929 118.857 77.3299 118.857H20.3033C17.0402 118.857 13.9109 120.144 11.6035 122.436C9.29624 124.727 8 127.835 8 131.075V148.068C8.00001 151.308 9.29624 154.416 11.6036 156.707C13.9109 158.998 17.0402 160.286 20.3033 160.286H76.7676C78.3833 160.286 79.9831 160.602 81.4758 161.216C82.9685 161.83 84.3249 162.73 85.4673 163.864C86.6098 164.999 87.516 166.346 88.1343 167.828C88.7526 169.31 422.35 172.504 89.0709 172.504V189.496C89.3723 205.046 55.2159 201.714 48.421 201.714H48.3759C45.1128 201.714 41.9835 203.002 39.6762 205.293C37.3688 207.584 36.0726 210.692 36.0726 213.932V230.925C36.0726 234.165 37.3688 237.273 39.6762 239.564C41.9835 241.856 45.1128 243.143 48.3759 243.143H79.4235C82.6865 243.143 85.8159 244.43 88.1232 246.721C90.4305 249.013 91.7267 252.12 91.7267 255.361V272.354C91.7267 275.594 90.4305 278.702 88.1232 280.993C85.8159 283.284 82.6865 284.571 79.4235 284.571H44.5444C41.2814 284.571 38.152 285.859 35.8447 288.15C33.5374 290.441 32.2411 293.549 32.2411 296.789V313.782C32.2411 317.023 33.5374 320.13 35.8447 322.422C38.152 324.713 41.2814 326 44.5444 326H437.247C440.51 326 443.639 324.713 445.947 322.422C448.254 320.13 449.55 317.023 449.55 313.782V296.789C449.55 293.549 448.254 290.441 445.947 288.15C443.639 285.859 440.51 284.571 437.247 284.571H417.13C413.867 284.571 410.738 283.284 408.431 280.993C406.123 278.702 404.827 275.594 404.827 272.354V255.361C404.827 252.12 406.123 249.013 408.431 246.721C410.738 244.43 413.867 243.143 417.13 243.143H451.732C454.995 243.143 458.125 241.856 460.432 239.564C462.739 237.273 464.036 234.165 464.036 230.925V213.932C464.036 210.692 462.739 207.584 460.432 205.293C458.125 203.002 454.995 201.714 451.732 201.714H434.653C431.39 201.714 428.261 200.427 425.953 198.136C423.646 195.845 422.35 192.737 422.35 189.496V172.504C422.35 170.899 422.668 169.31 423.286 167.828C423.905 166.346 424.811 164.999 425.953 163.864C427.096 162.73 428.452 161.83 429.945 161.216C431.438 160.602 433.038 160.286 434.653 160.286H472.697C475.96 160.286 479.089 158.998 481.396 156.707C483.704 154.416 485 151.308 485 148.068Z" fill="url(#paint0_radial_0_1)" fill-opacity="0.09"/>
<path d="M262.5 115C281.554 115 297 99.33 297 80C297 60.67 281.554 45 262.5 45C243.446 45 228 60.67 228 80C228 99.33 243.446 115 262.5 115Z" fill="#5F4435"/>
<path d="M48 222H77.8182" stroke="#5F4435" stroke-width="3" stroke-miterlimit="10" stroke-linecap="round"/>
<path d="M424.534 232.66C431.573 232.66 437.279 226.864 437.279 219.716C437.279 212.567 431.573 206.771 424.534 206.771C417.495 206.771 411.789 212.567 411.789 219.716C411.789 226.864 417.495 232.66 424.534 232.66Z" fill="#5F4435"/>
<path d="M390.899 235.769C394.549 235.769 397.508 232.764 397.508 229.057C397.508 225.351 394.549 222.346 390.899 222.346C387.25 222.346 384.291 225.351 384.291 229.057C384.291 232.764 387.25 235.769 390.899 235.769Z" fill="#B9D4DB"/>
<path d="M407.68 197.631C412.894 197.631 417.121 193.338 417.121 188.042C417.121 182.746 412.894 178.453 407.68 178.453C402.465 178.453 398.238 182.746 398.238 188.042C398.238 193.338 402.465 197.631 407.68 197.631Z" fill="#AE988C"/>
<path d="M134.516 318.72C142.891 318.72 149.68 311.825 149.68 303.319C149.68 294.813 142.891 287.918 134.516 287.918C126.141 287.918 119.352 294.813 119.352 303.319C119.352 311.825 126.141 318.72 134.516 318.72Z" fill="#5F4435"/>
<path d="M105.539 300.372C109.902 300.372 113.438 296.781 113.438 292.35C113.438 287.92 109.902 284.328 105.539 284.328C101.177 284.328 97.6406 287.92 97.6406 292.35C97.6406 296.781 101.177 300.372 105.539 300.372Z" fill="#B9D4DB"/>
<path d="M112.795 269.708C115.311 269.708 117.351 267.636 117.351 265.081C117.351 262.525 115.311 260.453 112.795 260.453C110.278 260.453 108.238 262.525 108.238 265.081C108.238 267.636 110.278 269.708 112.795 269.708Z" fill="#B9D4DB"/>
<path d="M138.017 279.448C144.049 279.448 148.939 274.481 148.939 268.354C148.939 262.227 144.049 257.261 138.017 257.261C131.984 257.261 127.094 262.227 127.094 268.354C127.094 274.481 131.984 279.448 138.017 279.448Z" fill="#AE988C"/>
<path d="M145.621 87.5193C153.996 87.5193 160.786 80.6239 160.786 72.1181C160.786 63.6122 153.996 56.7168 145.621 56.7168C137.246 56.7168 130.457 63.6122 130.457 72.1181C130.457 80.6239 137.246 87.5193 145.621 87.5193Z" fill="#AE988C"/>
<path d="M198.848 52.3472C202.624 52.3472 205.684 49.2386 205.684 45.4041C205.684 41.5695 202.624 38.4609 198.848 38.4609C195.072 38.4609 192.012 41.5695 192.012 45.4041C192.012 49.2386 195.072 52.3472 198.848 52.3472Z" fill="#5F4435"/>
<path d="M160.556 54.255C163.073 54.255 165.113 52.1832 165.113 49.6275C165.113 47.0718 163.073 45 160.556 45C158.04 45 156 47.0718 156 49.6275C156 52.1832 158.04 54.255 160.556 54.255Z" fill="#B9D4DB"/>
<path d="M179.27 75.0091C185.303 75.0091 190.193 70.0424 190.193 63.9157C190.193 57.789 185.303 52.8223 179.27 52.8223C173.238 52.8223 168.348 57.789 168.348 63.9157C168.348 70.0424 173.238 75.0091 179.27 75.0091Z" fill="#B9D4DB"/>
<path d="M387.869 156.665H131.035L122.66 135.103H387.869C388.199 135.103 388.525 135.169 388.83 135.297C389.135 135.425 389.412 135.613 389.645 135.85C389.878 136.087 390.064 136.368 390.19 136.678C390.316 136.987 390.381 137.319 390.381 137.654V154.114C390.381 154.449 390.316 154.781 390.19 155.09C390.064 155.4 389.878 155.681 389.645 155.918C389.412 156.155 389.135 156.343 388.83 156.471C388.525 156.599 388.199 156.665 387.869 156.665Z" fill="black"/>
<path d="M350.452 269.958H175.809C174.957 269.958 174.125 269.694 173.425 269.201C172.724 268.708 172.188 268.01 171.889 267.2L131.035 156.665H378.925L354.537 266.64C354.328 267.582 353.81 268.424 353.067 269.027C352.325 269.63 351.402 269.958 350.452 269.958Z" fill="#EFEFEF"/>
<path d="M366.364 213.315C348.498 214.479 330.632 215.087 312.766 215.501C303.833 215.76 294.9 215.818 285.967 215.97L259.168 216.126C241.301 216.142 223.435 215.937 205.569 215.509C187.703 215.097 169.837 214.486 151.971 213.315C169.837 212.144 187.703 211.532 205.569 211.12C223.435 210.713 241.301 210.507 259.168 210.504L285.967 210.659C294.9 210.812 303.833 210.869 312.766 211.128C330.632 211.542 348.498 212.151 366.364 213.315Z" fill="#AE988C"/>
<path d="M331.419 156.665C330.401 166.552 328.845 176.315 327.128 186.042C325.389 195.764 323.448 205.439 321.305 215.069C319.173 224.701 316.845 234.288 314.321 243.83C313.047 248.598 311.728 253.356 310.32 258.093C309.591 260.457 308.897 262.828 308.14 265.185L307.557 266.975C307.328 267.632 306.955 268.228 306.466 268.718C306.008 269.178 305.454 269.529 304.844 269.744C304.235 269.959 303.586 270.032 302.946 269.958C303.524 269.889 304.081 269.693 304.579 269.384C305.076 269.075 305.501 268.661 305.825 268.169C306.129 267.717 306.328 267.201 306.41 266.66L306.642 264.842C306.953 262.383 307.327 259.939 307.667 257.487C308.394 252.593 309.211 247.72 310.073 242.858C311.813 233.136 313.756 223.461 315.903 213.833C318.042 204.203 320.373 194.616 322.894 185.074C325.449 175.539 328.165 166.04 331.419 156.665ZM231.618 269.958C230.951 270.032 230.277 269.946 229.648 269.709C229.019 269.472 228.453 269.089 227.995 268.591C227.546 268.067 227.186 267.471 226.928 266.827L226.101 265.086C224.998 262.764 223.959 260.419 222.885 258.086C220.782 253.404 218.765 248.689 216.79 243.958C212.856 234.49 209.116 224.948 205.57 215.332C202.013 205.721 198.644 196.037 195.464 186.282C192.311 176.516 189.317 166.69 186.844 156.665C191.477 165.867 195.588 175.267 199.541 184.727C203.474 194.196 207.212 203.739 210.754 213.356C214.304 222.971 217.67 232.655 220.853 242.409C222.43 247.292 223.966 252.19 225.417 257.121C226.119 259.595 226.856 262.056 227.53 264.541L228.035 266.405C228.15 266.99 228.358 267.552 228.651 268.07C228.974 268.591 229.408 269.031 229.922 269.358C230.436 269.685 231.015 269.89 231.618 269.958Z" fill="#5F4435"/>
<path d="M219.174 356.876C228.73 356.876 236.476 349.009 236.476 339.305C236.476 329.6 228.73 321.733 219.174 321.733C209.619 321.733 201.873 329.6 201.873 339.305C201.873 349.009 209.619 356.876 219.174 356.876Z" fill="#AE988C"/>
<path d="M219.173 347.415C223.583 347.415 227.159 343.784 227.159 339.305C227.159 334.825 223.583 331.194 219.173 331.194C214.763 331.194 211.188 334.825 211.188 339.305C211.188 343.784 214.763 347.415 219.173 347.415Z" fill="#DBE8EC"/>
<path d="M318.975 356.876C328.53 356.876 336.276 349.009 336.276 339.305C336.276 329.6 328.53 321.733 318.975 321.733C309.42 321.733 301.674 329.6 301.674 339.305C301.674 349.009 309.42 356.876 318.975 356.876Z" fill="#AE988C"/>
<path d="M318.976 347.415C323.386 347.415 326.961 343.784 326.961 339.305C326.961 334.825 323.386 331.194 318.976 331.194C314.565 331.194 310.99 334.825 310.99 339.305C310.99 343.784 314.565 347.415 318.976 347.415Z" fill="#DBE8EC"/>
<path d="M260.701 156.665C262.399 166.037 263.547 175.442 264.529 184.857C265.488 194.274 266.241 203.703 266.788 213.144C267.346 222.585 267.703 232.038 267.86 241.503C267.987 250.97 267.945 260.447 267.348 269.958C265.642 260.587 264.493 251.182 263.512 241.766C262.553 232.35 261.803 222.921 261.261 213.479C260.71 204.038 260.356 194.584 260.197 185.119C260.071 175.652 260.111 166.175 260.701 156.665Z" fill="black"/>
<path d="M348.249 312.814H191.738C191.178 312.813 190.631 312.641 190.17 312.319C189.708 311.996 189.353 311.539 189.153 311.008L98.5084 71.0293H50.4958C49.7613 71.0293 49.057 70.733 48.5377 70.2055C48.0183 69.6781 47.7266 68.9627 47.7266 68.2168C47.7266 67.4709 48.0183 66.7555 48.5377 66.2281C49.057 65.7006 49.7613 65.4043 50.4958 65.4043H100.412C100.972 65.4043 101.519 65.5769 101.981 65.8992C102.442 66.2216 102.797 66.6785 102.998 67.2097L193.642 307.189H348.249C348.984 307.189 349.688 307.485 350.208 308.012C350.727 308.54 351.019 309.255 351.019 310.001C351.019 310.747 350.727 311.462 350.208 311.99C349.688 312.517 348.984 312.814 348.249 312.814Z" fill="black"/>
<path d="M74.5768 60.1074H41.7153C40.6957 60.1074 39.8691 60.9469 39.8691 61.9824V75.4449C39.8691 76.4804 40.6957 77.3199 41.7153 77.3199H74.5768C75.5964 77.3199 76.4229 76.4804 76.4229 75.4449V61.9824C76.4229 60.9469 75.5964 60.1074 74.5768 60.1074Z" fill="#AE988C"/>
<path d="M271.001 37.75C271 37.6955 271 37.6411 271 37.5866C271 34.5135 271.894 31.5089 273.571 28.9507C275.247 26.3924 277.631 24.3945 280.422 23.2082C283.214 22.0219 286.288 21.7001 289.259 22.2832C292.23 22.8663 294.965 24.3284 297.12 26.4856C299.275 28.6428 300.754 31.3988 301.371 34.4073C301.988 37.4158 301.716 40.5425 300.588 43.3943C299.461 46.2461 297.529 48.6958 295.034 50.4354C292.54 52.175 289.595 53.1269 286.569 53.1715V67.3247" fill="#5F4435"/>
<path d="M271.001 37.75C271 37.6955 271 37.6411 271 37.5866C271 34.5135 271.894 31.5089 273.571 28.9507C275.247 26.3924 277.631 24.3945 280.422 23.2082C283.214 22.0219 286.288 21.7001 289.259 22.2832C292.23 22.8663 294.965 24.3284 297.12 26.4856C299.275 28.6428 300.754 31.3988 301.371 34.4073C301.988 37.4158 301.716 40.5425 300.588 43.3943C299.461 46.2461 297.529 48.6958 295.034 50.4354C292.54 52.175 289.595 53.1269 286.569 53.1715V67.3247" stroke="white" stroke-width="4" stroke-linecap="round" stroke-linejoin="round"/>
<path d="M286.346 78.5576C287.722 78.5576 288.838 77.4244 288.838 76.0264C288.838 74.6284 287.722 73.4951 286.346 73.4951C284.969 73.4951 283.854 74.6284 283.854 76.0264C283.854 77.4244 284.969 78.5576 286.346 78.5576Z" fill="white"/>
<path d="M262.99 97.6648C260.183 97.6648 257.774 96.9545 255.763 95.5341C253.763 94.1023 252.223 92.0398 251.143 89.3466C250.075 86.642 249.541 83.3864 249.541 79.5795C249.553 75.7727 250.092 72.5341 251.161 69.8636C252.24 67.1818 253.78 65.1364 255.78 63.7273C257.791 62.3182 260.195 61.6136 262.99 61.6136C265.786 61.6136 268.189 62.3182 270.2 63.7273C272.212 65.1364 273.751 67.1818 274.82 69.8636C275.899 72.5455 276.439 75.7841 276.439 79.5795C276.439 83.3977 275.899 86.6591 274.82 89.3636C273.751 92.0568 272.212 94.1136 270.2 95.5341C268.2 96.9545 265.797 97.6648 262.99 97.6648ZM262.99 92.3295C265.172 92.3295 266.893 91.2557 268.155 89.108C269.428 86.9489 270.064 83.7727 270.064 79.5795C270.064 76.8068 269.774 74.4773 269.195 72.5909C268.615 70.7045 267.797 69.2841 266.74 68.3295C265.683 67.3636 264.433 66.8807 262.99 66.8807C260.82 66.8807 259.104 67.9602 257.842 70.1193C256.581 72.267 255.945 75.4205 255.933 79.5795C255.922 82.3636 256.2 84.7045 256.768 86.6023C257.348 88.5 258.166 89.9318 259.223 90.8977C260.28 91.8523 261.536 92.3295 262.99 92.3295Z" fill="white"/>
<defs>
<radialGradient id="paint0_radial_0_1" cx="0" cy="0" r="1" gradientUnits="userSpaceOnUse" gradientTransform="translate(246 0.999984) rotate(89.9119) scale(325 534.57)">
<stop offset="0.388542" stop-color="#B5B5B5" stop-opacity="0.58"/>
<stop offset="1" stop-color="white" stop-opacity="0"/>
</radialGradient>
</defs>
</svg>
