<svg width="101" height="17" viewBox="0 0 101 17" fill="none" xmlns="http://www.w3.org/2000/svg">
<path d="M8.96552 5.09091C8.88029 4.37121 8.53465 3.8125 7.92859 3.41477C7.32253 3.01705 6.57916 2.81818 5.69847 2.81818C5.05454 2.81818 4.49109 2.92235 4.00813 3.13068C3.52991 3.33901 3.15586 3.62547 2.88597 3.99006C2.62082 4.35464 2.48825 4.76894 2.48825 5.23295C2.48825 5.62121 2.58058 5.95502 2.76524 6.23438C2.95463 6.509 3.19611 6.73864 3.48967 6.9233C3.78323 7.10322 4.09099 7.25237 4.41296 7.37074C4.73493 7.48437 5.03086 7.5767 5.30075 7.64773L6.77802 8.04545C7.15681 8.14489 7.57821 8.2822 8.04222 8.45739C8.51097 8.63258 8.95842 8.87169 9.38455 9.17472C9.81543 9.47301 10.1705 9.85653 10.4499 10.3253C10.7293 10.794 10.8689 11.3693 10.8689 12.0511C10.8689 12.8371 10.663 13.5473 10.251 14.1818C9.84383 14.8163 9.24724 15.3205 8.46126 15.6946C7.68001 16.0687 6.73067 16.2557 5.61325 16.2557C4.57158 16.2557 3.66959 16.0876 2.90728 15.7514C2.14971 15.4152 1.55311 14.9465 1.11751 14.3452C0.686637 13.7438 0.442793 13.0455 0.385975 12.25H2.20416C2.2515 12.7992 2.43616 13.2538 2.75813 13.6136C3.08484 13.9687 3.49677 14.2339 3.99393 14.4091C4.49582 14.5795 5.0356 14.6648 5.61325 14.6648C6.2856 14.6648 6.88929 14.5559 7.42433 14.3381C7.95937 14.1155 8.38313 13.8078 8.69563 13.4148C9.00813 13.017 9.16438 12.553 9.16438 12.0227C9.16438 11.5398 9.02944 11.1468 8.75955 10.8438C8.48967 10.5407 8.13455 10.2945 7.69421 10.1051C7.25387 9.91572 6.77802 9.75 6.26666 9.60795L4.47688 9.09659C3.34052 8.76989 2.4409 8.3035 1.77802 7.69744C1.11514 7.09138 0.783702 6.2983 0.783702 5.31818C0.783702 4.50379 1.00387 3.79356 1.44421 3.1875C1.88929 2.5767 2.48588 2.10322 3.23399 1.76705C3.98683 1.42614 4.82726 1.25568 5.75529 1.25568C6.69279 1.25568 7.52613 1.42377 8.25529 1.75994C8.98446 2.09138 9.56211 2.54593 9.98825 3.12358C10.4191 3.70123 10.6464 4.35701 10.6701 5.09091H8.96552ZM17.8694 16.2273C16.8846 16.2273 16.0205 15.9929 15.2771 15.5241C14.5385 15.0554 13.9608 14.3996 13.5441 13.5568C13.1322 12.714 12.9262 11.7292 12.9262 10.6023C12.9262 9.46591 13.1322 8.47396 13.5441 7.62642C13.9608 6.77888 14.5385 6.12074 15.2771 5.65199C16.0205 5.18324 16.8846 4.94886 17.8694 4.94886C18.8543 4.94886 19.716 5.18324 20.4547 5.65199C21.198 6.12074 21.7757 6.77888 22.1876 7.62642C22.6043 8.47396 22.8126 9.46591 22.8126 10.6023C22.8126 11.7292 22.6043 12.714 22.1876 13.5568C21.7757 14.3996 21.198 15.0554 20.4547 15.5241C19.716 15.9929 18.8543 16.2273 17.8694 16.2273ZM17.8694 14.7216C18.6175 14.7216 19.2331 14.5298 19.716 14.1463C20.199 13.7628 20.5565 13.2585 20.7885 12.6335C21.0205 12.0085 21.1365 11.3314 21.1365 10.6023C21.1365 9.87311 21.0205 9.19366 20.7885 8.56392C20.5565 7.93419 20.199 7.42519 19.716 7.03693C19.2331 6.64867 18.6175 6.45455 17.8694 6.45455C17.1213 6.45455 16.5058 6.64867 16.0228 7.03693C15.5399 7.42519 15.1824 7.93419 14.9504 8.56392C14.7184 9.19366 14.6024 9.87311 14.6024 10.6023C14.6024 11.3314 14.7184 12.0085 14.9504 12.6335C15.1824 13.2585 15.5399 13.7628 16.0228 14.1463C16.5058 14.5298 17.1213 14.7216 17.8694 14.7216ZM30.1292 5.09091V6.51136H24.2485V5.09091H30.1292ZM26.0098 16V3.58523C26.0098 2.96023 26.1566 2.43939 26.4502 2.02273C26.7437 1.60606 27.1249 1.29356 27.5936 1.08523C28.0624 0.876893 28.5572 0.772726 29.078 0.772726C29.49 0.772726 29.8261 0.80587 30.0865 0.872159C30.347 0.938446 30.5411 0.999999 30.6689 1.05682L30.186 2.50568C30.1007 2.47727 29.9824 2.44176 29.8309 2.39915C29.6841 2.35653 29.49 2.33523 29.2485 2.33523C28.6945 2.33523 28.2944 2.4749 28.0482 2.75426C27.8067 3.03362 27.686 3.44318 27.686 3.98295V16H26.0098ZM35.276 16.2557C34.5847 16.2557 33.9573 16.1255 33.3939 15.8651C32.8304 15.5999 32.383 15.2188 32.0515 14.7216C31.7201 14.2197 31.5544 13.6136 31.5544 12.9034C31.5544 12.2784 31.6775 11.7718 31.9237 11.3835C32.1699 10.9905 32.499 10.6828 32.9109 10.4602C33.3228 10.2377 33.7774 10.072 34.2745 9.96307C34.7764 9.84943 35.2807 9.75947 35.7873 9.69318C36.4502 9.60795 36.9876 9.54403 37.3995 9.50142C37.8162 9.45407 38.1192 9.37595 38.3086 9.26705C38.5028 9.15814 38.5998 8.96875 38.5998 8.69886V8.64205C38.5998 7.94129 38.4081 7.39678 38.0245 7.00852C37.6458 6.62027 37.0705 6.42614 36.2987 6.42614C35.4985 6.42614 34.8711 6.60133 34.4166 6.9517C33.962 7.30208 33.6424 7.67614 33.4578 8.07386L31.8669 7.50568C32.151 6.8428 32.5297 6.3267 33.0032 5.95739C33.4815 5.58333 34.0023 5.32292 34.5657 5.17614C35.1339 5.02462 35.6926 4.94886 36.2419 4.94886C36.5922 4.94886 36.9947 4.99148 37.4493 5.0767C37.9085 5.1572 38.3512 5.32528 38.7774 5.58097C39.2083 5.83665 39.5657 6.22254 39.8498 6.73864C40.1339 7.25473 40.276 7.94602 40.276 8.8125V16H38.5998V14.5227H38.5146C38.401 14.7595 38.2116 15.0128 37.9464 15.2827C37.6813 15.5526 37.3285 15.7822 36.8882 15.9716C36.4478 16.161 35.9104 16.2557 35.276 16.2557ZM35.5316 14.75C36.1945 14.75 36.7532 14.6198 37.2078 14.3594C37.6671 14.099 38.0127 13.7628 38.2447 13.3509C38.4815 12.9389 38.5998 12.5057 38.5998 12.0511V10.517C38.5288 10.6023 38.3726 10.6804 38.1311 10.7514C37.8943 10.8177 37.6197 10.8769 37.3072 10.929C36.9994 10.9763 36.6988 11.0189 36.4052 11.0568C36.1164 11.09 35.882 11.1184 35.7021 11.142C35.2665 11.1989 34.8593 11.2912 34.4805 11.419C34.1065 11.5421 33.8034 11.7292 33.5714 11.9801C33.3441 12.2263 33.2305 12.5625 33.2305 12.9886C33.2305 13.571 33.4459 14.0114 33.8768 14.3097C34.3124 14.6032 34.864 14.75 35.5316 14.75Z" fill="url(#paint0_linear_10_3)"/>
<path d="M43.4625 16V1.45455H45.2239V7.93182H52.9796V1.45455H54.7409V16H52.9796V9.49432H45.2239V16H43.4625ZM62.3718 16.2273C61.3869 16.2273 60.5228 15.9929 59.7794 15.5241C59.0408 15.0554 58.4632 14.3996 58.0465 13.5568C57.6346 12.714 57.4286 11.7292 57.4286 10.6023C57.4286 9.46591 57.6346 8.47396 58.0465 7.62642C58.4632 6.77888 59.0408 6.12074 59.7794 5.65199C60.5228 5.18324 61.3869 4.94886 62.3718 4.94886C63.3566 4.94886 64.2184 5.18324 64.957 5.65199C65.7004 6.12074 66.278 6.77888 66.69 7.62642C67.1066 8.47396 67.315 9.46591 67.315 10.6023C67.315 11.7292 67.1066 12.714 66.69 13.5568C66.278 14.3996 65.7004 15.0554 64.957 15.5241C64.2184 15.9929 63.3566 16.2273 62.3718 16.2273ZM62.3718 14.7216C63.1199 14.7216 63.7354 14.5298 64.2184 14.1463C64.7013 13.7628 65.0588 13.2585 65.2908 12.6335C65.5228 12.0085 65.6388 11.3314 65.6388 10.6023C65.6388 9.87311 65.5228 9.19366 65.2908 8.56392C65.0588 7.93419 64.7013 7.42519 64.2184 7.03693C63.7354 6.64867 63.1199 6.45455 62.3718 6.45455C61.6237 6.45455 61.0081 6.64867 60.5252 7.03693C60.0422 7.42519 59.6847 7.93419 59.4527 8.56392C59.2207 9.19366 59.1047 9.87311 59.1047 10.6023C59.1047 11.3314 59.2207 12.0085 59.4527 12.6335C59.6847 13.2585 60.0422 13.7628 60.5252 14.1463C61.0081 14.5298 61.6237 14.7216 62.3718 14.7216ZM76.6485 11.5398V5.09091H78.3247V16H76.6485V14.1534H76.5349C76.2792 14.7074 75.8815 15.1785 75.3417 15.5668C74.802 15.9503 74.1201 16.142 73.2963 16.142C72.6145 16.142 72.0084 15.9929 71.4781 15.6946C70.9478 15.3916 70.5311 14.937 70.2281 14.331C69.9251 13.7202 69.7735 12.9508 69.7735 12.0227V5.09091H71.4497V11.9091C71.4497 12.7045 71.6722 13.339 72.1173 13.8125C72.5671 14.286 73.14 14.5227 73.836 14.5227C74.2527 14.5227 74.6765 14.4162 75.1074 14.2031C75.543 13.9901 75.9075 13.6634 76.2011 13.223C76.4994 12.7827 76.6485 12.2216 76.6485 11.5398ZM89.0219 7.53409L87.5162 7.96023C87.4215 7.70928 87.2819 7.46544 87.0972 7.22869C86.9173 6.98722 86.6711 6.78835 86.3586 6.6321C86.0461 6.47585 85.646 6.39773 85.1583 6.39773C84.4907 6.39773 83.9343 6.55161 83.4892 6.85938C83.0489 7.16241 82.8287 7.5483 82.8287 8.01705C82.8287 8.43371 82.9802 8.76278 83.2833 9.00426C83.5863 9.24574 84.0598 9.44697 84.7037 9.60795L86.3231 10.0057C87.2984 10.2424 88.0252 10.6046 88.5034 11.0923C88.9817 11.5753 89.2208 12.1979 89.2208 12.9602C89.2208 13.5852 89.0409 14.1439 88.681 14.6364C88.3259 15.1288 87.8287 15.517 87.1895 15.8011C86.5503 16.0852 85.807 16.2273 84.9594 16.2273C83.8467 16.2273 82.9258 15.9858 82.1966 15.5028C81.4675 15.0199 81.0058 14.3144 80.8117 13.3864L82.4026 12.9886C82.5541 13.5758 82.8406 14.0161 83.262 14.3097C83.6881 14.6032 84.2445 14.75 84.931 14.75C85.7123 14.75 86.3325 14.5843 86.7918 14.2528C87.2558 13.9167 87.4878 13.5142 87.4878 13.0455C87.4878 12.6667 87.3552 12.3494 87.0901 12.0938C86.8249 11.8333 86.4177 11.6392 85.8685 11.5114L84.0503 11.0852C83.0513 10.8485 82.3174 10.4815 81.8486 9.98438C81.3846 9.48248 81.1526 8.85511 81.1526 8.10227C81.1526 7.48674 81.3254 6.94223 81.6711 6.46875C82.0214 5.99527 82.4973 5.62358 83.0986 5.35369C83.7047 5.08381 84.3912 4.94886 85.1583 4.94886C86.2378 4.94886 87.0854 5.18561 87.7009 5.65909C88.3212 6.13258 88.7615 6.75758 89.0219 7.53409ZM96.2177 16.2273C95.1666 16.2273 94.2599 15.9953 93.4975 15.5312C92.74 15.0625 92.1552 14.4091 91.7433 13.571C91.3361 12.7282 91.1325 11.7481 91.1325 10.6307C91.1325 9.51326 91.3361 8.52841 91.7433 7.67614C92.1552 6.81913 92.7281 6.15152 93.462 5.6733C94.2007 5.19034 95.0624 4.94886 96.0473 4.94886C96.6154 4.94886 97.1765 5.04356 97.7305 5.23295C98.2845 5.42235 98.7887 5.73011 99.2433 6.15625C99.6978 6.57765 100.06 7.13636 100.33 7.83239C100.6 8.52841 100.735 9.38542 100.735 10.4034V11.1136H92.3257V9.66477H99.0302C99.0302 9.04924 98.9071 8.5 98.6609 8.01705C98.4194 7.53409 98.0738 7.15294 97.624 6.87358C97.1789 6.59422 96.6533 6.45455 96.0473 6.45455C95.3797 6.45455 94.802 6.62026 94.3143 6.9517C93.8314 7.27841 93.4597 7.70455 93.1993 8.23011C92.9388 8.75568 92.8086 9.31913 92.8086 9.92045V10.8864C92.8086 11.7102 92.9507 12.4086 93.2348 12.9815C93.5236 13.5497 93.9237 13.983 94.435 14.2812C94.9464 14.5748 95.5406 14.7216 96.2177 14.7216C96.6581 14.7216 97.0558 14.66 97.4109 14.5369C97.7707 14.4091 98.0809 14.2197 98.3413 13.9688C98.6017 13.7131 98.8029 13.3958 98.945 13.017L100.564 13.4716C100.394 14.0208 100.107 14.5038 99.7049 14.9205C99.3025 15.3324 98.8053 15.6544 98.2135 15.8864C97.6216 16.1136 96.9564 16.2273 96.2177 16.2273Z" fill="url(#paint1_radial_10_3)"/>
<defs>
<linearGradient id="paint0_linear_10_3" x1="50.5" y1="-3" x2="50.5" y2="21" gradientUnits="userSpaceOnUse">
<stop offset="0.508333" stop-color="#8D4C00"/>
<stop offset="1" stop-color="#461C1C" stop-opacity="0"/>
</linearGradient>
<radialGradient id="paint1_radial_10_3" cx="0" cy="0" r="1" gradientUnits="userSpaceOnUse" gradientTransform="translate(257.75 19.75) rotate(6.26432) scale(208.495 912.165)">
<stop offset="0.9998" stop-color="#8E4D01"/>
<stop offset="0.9999" stop-color="white" stop-opacity="0"/>
<stop offset="1"/>
</radialGradient>
</defs>
</svg>
